<svg version="1.0" xmlns="http://www.w3.org/2000/svg" width="958.667" height="958.667" viewBox="0 0 719 719"><path d="M.5 358.3C.4 511.9.7 637.7 1.1 638c1 .7 97.8.4 98.5-.3.8-.8 1.1-18.6.3-19.8-.3-.5-18-1-39.4-1.1l-38.8-.3V359.2c0-141.5.3-257.6.7-258 .4-.4 17.9-.7 38.9-.7h38.2l.2-8.5c.1-4.7 0-9.5-.2-10.6l-.5-2.1-49.2-.1-49.3-.1v279.2zm619-277.9c-.2.6-.3 5.4-.2 10.6l.2 9.5h78.2V617h-79.4l.1 10.5c.1 8.6.4 10.5 1.6 10.6 2.1.1 96.2.1 97.8 0 .9-.1 1.2-56.7 1.2-279.6V79l-49.6.1c-35.9.1-49.7.4-49.9 1.3zm-463.6 95.3c-.6 1.6-8.7 23-18 47.8-9.4 24.7-21.3 56.4-26.6 70.3-5.3 13.9-9.3 25.6-8.9 25.9.6.7 23.5.8 24 .2.1-.2 2.6-7.2 5.6-15.4 2.9-8.3 6.1-16.7 7-18.9l1.6-3.8h27.9c35.3.1 33.5 0 34 1.4 1.1 3.6 12.9 36.4 13.1 36.7.5.6 23.5.7 24.4.1.4-.3-2.8-10-7.1-21.5-4.4-11.6-8.6-22.8-9.4-25-.7-2.2-4.1-11.2-7.5-20-3.4-8.8-11.6-30.5-18.2-48.3L185.6 173H157l-1.1 2.7zm16.6 22.3c1 4.4 4.7 15.7 9.5 29 2.3 6.3 4.8 13.5 5.7 16 .8 2.5 1.8 5.4 2.3 6.5 2 4.8 4 10.6 4 11.5 0 .6-8.8 1-23.4 1h-23.3l8.6-23.8c4.8-13.1 10-28.2 11.6-33.5 1.5-5.3 3.2-9.7 3.6-9.7.4 0 1 1.4 1.4 3zm151.9-18.3c2.3 3.8 11.6 18 20.6 31.8 23.7 36.4 22.5 34.3 20.8 36.3-.9.9-4.6 6.2-8.3 11.7-3.8 5.5-9.6 14-13 19-3.4 4.9-10.2 14.8-15 22-4.9 7.1-9.8 14.2-10.9 15.7-1.1 1.5-1.7 3.1-1.3 3.4.4.4 6.3.8 13.3.8 10 .1 12.8-.2 13.8-1.4.7-.8 5.3-7.8 10.1-15.5l14-22c2.8-4.4 6.5-10.2 8.2-12.8l3-4.9 8.2 12.9c4.6 7 12.3 19.1 17.2 26.8 5 7.7 9.4 14.6 9.8 15.4.7 1.1 3.9 1.4 14.1 1.5 7.2.1 13.6-.1 14-.4.5-.3-5-9.6-12.3-20.6-26.2-39.8-35.7-54.3-35.7-54.9 0-.3 10.6-16.4 23.5-35.8l23.6-35.2-12.7-.3c-9.4-.2-13.1.1-14 1-1.2 1.3-7.8 11.4-18.9 29.3-3.1 4.9-7.6 12.1-10 15.9l-4.4 6.9-5.3-8.4c-3-4.6-10.6-16.6-16.9-26.6L348.5 173H320l4.4 6.7z"/><path d="M520 246.5c0 58.1.3 73.5 1.3 73.6 1.6.1 105.8.1 107.3 0 .8-.1 1.1-3.5 1-10.4l-.1-10.2h-85l-.3-21.8-.2-21.7h64.6l-.1-9.5c0-6.1-.4-9.8-1.2-10.3-.6-.4-15.1-.7-32.2-.6l-31.1.1v-20.9c0-15.9.3-20.8 1.3-20.9.6 0 19.2-.1 41.2-.2l40-.2.3-10.3.3-10.2H520v73.5zm-199.7 199c.3 45.1.6 53.8 2 58.4 5.6 18.7 17.4 30.2 36.7 35.6 8.8 2.5 31.5 2.6 41.4.1 23.2-5.6 36.6-21.3 39.2-46 .9-8.2 1.1-97.7.3-99.6-.6-1.3-2.7-1.5-11.6-1.4-5.9.1-11.1.2-11.4.3-.3 0-.6 21.4-.7 47.3 0 38.4-.3 48.7-1.6 54.5-3.8 18.3-15 26.3-36.1 25.8-18.5-.4-28.1-7.6-32.5-24.3-1.4-5.5-1.7-12.7-1.6-54.8.1-26.6-.1-48.5-.4-48.5-.3-.1-5.8-.2-12.3-.3l-11.8-.1.4 53zm-219.9-51.6c-.2.2-.4 33.4-.4 73.8V541l11.2-.3 11.1-.2-.1-50.5c0-27.8-.3-54.2-.5-58.8-.5-9.5-.7-9.6 6.8 4.3 4.4 8.2 25.6 43.3 45.5 75.5 4.2 6.9 10.1 16.4 13 21.2l5.2 8.7 14.2-.2 14.1-.2v-147h-22l.1 58.8c0 32.3 0 58.6-.1 58.5-.1-.2-1.8-3.2-3.7-6.8-7.9-14.6-10.8-19.6-25.8-44-8.6-14-16.2-26.4-16.8-27.5-.7-1.1-6.3-10.3-12.6-20.5l-11.3-18.5h-13.7c-7.5 0-13.9.1-14.2.4zm470 .1c-4.3.9-9.3 4.7-10.6 7.9-2.7 6.7-1.8 14.5 2.1 19 4.4 5.1 14.4 6.5 21.9 3.1 11.1-5 10.6-24-.7-28.7-4.2-1.8-8.3-2.2-12.7-1.3zm-1.9 84.2c-4.2 1.5-8.3 5.5-9.6 9.6-1.3 4-.6 12 1.3 15.2 3 4.8 10.7 7.4 16.6 5.6 2.2-.7 2.3-.6 1.7 1.6-2.1 6.5-9.6 14.4-17.2 18.1-2.4 1.2-4.3 2.4-4.3 2.8 0 .4 2.3 2.8 5.2 5.3l5.1 4.5 3.9-2.2c15.7-8.9 25-28 21.8-44.9-2.5-12.8-13.1-19.6-24.5-15.6z"/></svg>