<?xml version="1.0" standalone="no"?>
<!DOCTYPE svg PUBLIC "-//W3C//DTD SVG 20010904//EN"
 "http://www.w3.org/TR/2001/REC-SVG-20010904/DTD/svg10.dtd">
<svg version="1.0" xmlns="http://www.w3.org/2000/svg"
 width="719.000000pt" height="719.000000pt" viewBox="0 0 719.000000 719.000000"
 preserveAspectRatio="xMidYMid meet">
<metadata>
Created by potrace 1.11, written by Peter Selinger 2001-2013
</metadata>
<g transform="translate(0.000000,719.000000) scale(0.100000,-0.100000)"
fill="#000000" stroke="none">
<path d="M5 3607 c-1 -1536 2 -2794 6 -2797 10 -7 978 -4 985 3 8 8 11 186 3
198 -3 5 -180 10 -394 11 l-388 3 0 2573 c0 1415 3 2576 7 2580 4 4 179 7 389
7 l382 0 2 85 c1 47 0 95 -2 106 l-5 21 -492 1 -493 1 0 -2792z"/>
<path d="M6195 6386 c-2 -6 -3 -54 -2 -106 l2 -95 391 0 391 0 0 -2582 0
-2583 -397 0 -397 0 1 -105 c1 -86 4 -105 16 -106 21 -1 962 -1 978 0 9 1 12
567 12 2796 l0 2795 -496 -1 c-359 -1 -497 -4 -499 -13z"/>
<path d="M1559 5433 c-6 -16 -87 -230 -180 -478 -94 -247 -213 -564 -266 -703
-53 -139 -93 -256 -89 -259 6 -7 235 -8 240 -2 1 2 26 72 56 154 29 83 61 167
70 189 l16 38 279 0 c353 -1 335 0 340 -14 11 -36 129 -364 131 -367 5 -6 235
-7 244 -1 4 3 -28 100 -71 215 -44 116 -86 228 -94 250 -7 22 -41 112 -75 200
-34 88 -116 305 -182 483 l-122 322 -143 0 -143 0 -11 -27z m166 -223 c10 -44
47 -157 95 -290 23 -63 48 -135 57 -160 8 -25 18 -54 23 -65 20 -48 40 -106
40 -115 0 -6 -88 -10 -234 -10 l-233 0 86 238 c48 131 100 282 116 335 15 53
32 97 36 97 4 0 10 -14 14 -30z"/>
<path d="M3244 5393 c23 -38 116 -180 206 -318 237 -364 225 -343 208 -363 -9
-9 -46 -62 -83 -117 -38 -55 -96 -140 -130 -190 -34 -49 -102 -148 -150 -220
-49 -71 -98 -142 -109 -157 -11 -15 -17 -31 -13 -34 4 -4 63 -8 133 -8 100 -1
128 2 138 14 7 8 53 78 101 155 49 77 112 176 140 220 28 44 65 102 82 128
l30 49 82 -129 c46 -70 123 -191 172 -268 50 -77 94 -146 98 -154 7 -11 39
-14 141 -15 72 -1 136 1 140 4 5 3 -50 96 -123 206 -262 398 -357 543 -357
549 0 3 106 164 235 358 l236 352 -127 3 c-94 2 -131 -1 -140 -10 -12 -13 -78
-114 -189 -293 -31 -49 -76 -121 -100 -159 l-44 -69 -53 84 c-30 46 -106 166
-169 266 l-114 183 -142 0 -143 0 44 -67z"/>
<path d="M5200 4725 c0 -581 3 -735 13 -736 16 -1 1058 -1 1073 0 8 1 11 35
10 104 l-1 102 -425 0 -425 0 -3 218 -2 217 323 0 323 0 -1 95 c0 61 -4 98
-12 103 -6 4 -151 7 -322 6 l-311 -1 0 209 c0 159 3 208 13 209 6 0 192 1 412
2 l400 2 3 103 3 102 -536 0 -535 0 0 -735z"/>
<path d="M3203 2735 c3 -451 6 -538 20 -584 56 -187 174 -302 367 -356 88 -25
315 -26 414 -1 232 56 366 213 392 460 9 82 11 977 3 996 -6 13 -27 15 -116
14 -59 -1 -111 -2 -114 -3 -3 0 -6 -214 -7 -473 0 -384 -3 -487 -16 -545 -38
-183 -150 -263 -361 -258 -185 4 -281 76 -325 243 -14 55 -17 127 -16 548 1
266 -1 485 -4 485 -3 1 -58 2 -123 3 l-118 1 4 -530z"/>
<path d="M1004 3251 c-2 -2 -4 -334 -4 -738 l0 -733 112 3 111 2 -1 505 c0
278 -3 542 -5 588 -5 95 -7 96 68 -43 44 -82 256 -433 455 -755 42 -69 101
-164 130 -212 l52 -87 142 2 141 2 0 735 0 735 -110 0 -110 0 1 -588 c0 -323
0 -586 -1 -585 -1 2 -18 32 -37 68 -79 146 -108 196 -258 440 -86 140 -162
264 -168 275 -7 11 -63 103 -126 205 l-113 185 -137 0 c-75 0 -139 -1 -142 -4z"/>
<path d="M5704 3250 c-43 -9 -93 -47 -106 -79 -27 -67 -18 -145 21 -190 44
-51 144 -65 219 -31 111 50 106 240 -7 287 -42 18 -83 22 -127 13z"/>
<path d="M5685 2408 c-42 -15 -83 -55 -96 -96 -13 -40 -6 -120 13 -152 30 -48
107 -74 166 -56 22 7 23 6 17 -16 -21 -65 -96 -144 -172 -181 -24 -12 -43 -24
-43 -28 0 -4 23 -28 52 -53 l51 -45 39 22 c157 89 250 280 218 449 -25 128
-131 196 -245 156z"/>
</g>
</svg>
